<svg class="svg-icon" style="width: 1em;height: 1em;vertical-align: middle;fill: currentColor;overflow: hidden;" viewBox="0 0 1024 1024" version="1.1" xmlns="http://www.w3.org/2000/svg"><path d="M612.6 83.9H948c6.2 0 11.3 5 11.3 11.3V139c0 6.2-5 11.3-11.3 11.3H612.6c-6.2 0-11.3-5-11.3-11.3V95.2c0-6.3 5-11.3 11.3-11.3zM601.3 336.4v-43.9c0-6.2 5-11.3 11.3-11.3H948c6.2 0 11.3 5 11.3 11.3v43.9c0 6.2-5 11.3-11.3 11.3H612.6c-6.3 0-11.3-5.1-11.3-11.3zM601.3 533.8v-43.9c0-6.2 5-11.3 11.3-11.3H948c6.2 0 11.3 5 11.3 11.3v43.9c0 6.2-5 11.3-11.3 11.3H612.6c-6.3 0-11.3-5.1-11.3-11.3zM64 731.2v-43.9c0-6.2 5-11.3 11.3-11.3H948c6.2 0 11.3 5 11.3 11.3v43.9c0 6.2-5 11.3-11.3 11.3H75.3c-6.3 0-11.3-5.1-11.3-11.3zM64 928.6v-43.9c0-6.2 5-11.3 11.3-11.3H948c6.2 0 11.3 5 11.3 11.3v43.9c0 6.2-5 11.3-11.3 11.3H75.3c-6.3 0-11.3-5-11.3-11.3zM64.2 155.3V94.6c0-6.2 5-11.3 11.3-11.3h425c6.2 0 11.3 5 11.3 11.3v61.1c0 6.2-5 11.3-11.3 11.3l-425-0.3c-6.3-0.1-11.3-5.1-11.3-11.4z"  /><path d="M243.2 165h89.5v427.5c0 11.3-9.2 20.5-20.5 20.5h-48.6c-11.3 0-20.5-9.2-20.5-20.5V165z"  /></svg>