<svg width="22" height="22" viewBox="0 0 22 22" fill="none" xmlns="http://www.w3.org/2000/svg">
<circle cx="11" cy="11" r="11" fill="#00BD57"/>
<path d="M17.1358 6.80327C17.3501 7.0156 17.4705 7.30342 17.4705 7.60351C17.4705 7.9036 17.3501 8.19142 17.1358 8.40375L10.2689 15.1982C10.0543 15.4103 9.76343 15.5294 9.46015 15.5294C9.15686 15.5294 8.86597 15.4103 8.65138 15.1982L4.83646 11.4235C4.6343 11.2088 4.52424 10.9249 4.52948 10.6315C4.53471 10.3382 4.65482 10.0583 4.86451 9.85079C5.07419 9.64331 5.35709 9.52446 5.65358 9.51929C5.95008 9.51411 6.23703 9.62301 6.45399 9.82304L9.46015 12.796L15.5182 6.80176C15.7328 6.5897 16.0237 6.47058 16.327 6.47058C16.6303 6.47058 16.9212 6.5897 17.1358 6.80176V6.80327Z" fill="white" stroke="white" stroke-width="0.5"/>
</svg>
